<?xml version="1.0" standalone="no"?>
<!DOCTYPE svg PUBLIC "-//W3C//DTD SVG 20010904//EN"
 "http://www.w3.org/TR/2001/REC-SVG-20010904/DTD/svg10.dtd">
<svg version="1.0" xmlns="http://www.w3.org/2000/svg"
 width="980.000000pt" height="978.000000pt" viewBox="0 0 980.000000 978.000000"
 preserveAspectRatio="xMidYMid meet">
<metadata>
Created by potrace 1.16, written by Peter Selinger 2001-2019
</metadata>
<g transform="translate(0.000000,978.000000) scale(0.100000,-0.100000)"
fill="#000000" stroke="none">
<path d="M4562 9754 c-108 -23 -272 -82 -387 -139 -624 -307 -1186 -1046
-1540 -2025 -75 -207 -72 -187 -28 -200 590 -171 1248 -276 1921 -306 l152 -7
0 1347 0 1346 -27 -1 c-16 -1 -57 -7 -91 -15z"/>
<path d="M5120 8424 l0 -1347 163 7 c603 26 1198 115 1752 263 94 25 171 46
173 48 5 4 -117 331 -174 467 -62 148 -195 418 -269 548 -88 155 -250 393
-355 524 -349 434 -745 710 -1165 812 -55 13 -106 24 -112 24 -10 0 -13 -276
-13 -1346z"/>
<path d="M6531 9433 c397 -408 760 -1017 1008 -1688 77 -207 78 -210 93 -207
56 13 362 146 538 234 220 109 470 252 470 269 0 16 -139 169 -290 319 -505
505 -1097 884 -1767 1131 -73 27 -138 49 -145 49 -6 0 36 -48 93 -107z"/>
<path d="M3190 9481 c-603 -229 -1112 -541 -1595 -980 -157 -143 -435 -437
-435 -459 0 -16 306 -192 500 -286 214 -104 491 -220 501 -208 4 4 14 32 24
62 30 94 161 419 225 561 227 496 531 957 844 1277 44 45 76 82 71 81 -6 0
-66 -22 -135 -48z"/>
<path d="M806 7573 c-491 -747 -763 -1589 -802 -2485 l-7 -158 871 0 872 0 0
38 c1 88 21 508 31 627 37 461 111 920 215 1344 25 101 42 187 37 191 -4 5
-54 27 -110 49 -323 128 -636 285 -909 457 -56 35 -105 64 -108 64 -4 0 -44
-57 -90 -127z"/>
<path d="M8855 7673 c-259 -176 -683 -388 -1091 -543 -21 -9 -21 -9 17 -162
141 -555 226 -1185 247 -1823 l7 -210 884 -3 884 -2 -7 147 c-42 915 -309
1745 -802 2496 -46 70 -87 127 -91 127 -5 0 -26 -12 -48 -27z"/>
<path d="M2437 6963 c-4 -16 -24 -104 -46 -198 -122 -523 -197 -1129 -204
-1650 l-2 -180 1248 -3 1247 -2 0 854 0 854 -127 6 c-756 38 -1360 132 -1965
307 -76 21 -139 39 -141 39 -3 0 -7 -12 -10 -27z"/>
<path d="M7260 6964 c-103 -33 -438 -116 -620 -153 -438 -89 -874 -141 -1392
-167 l-128 -6 0 -854 0 -854 1237 0 1236 0 -6 233 c-13 472 -65 930 -157 1387
-61 298 -93 425 -110 427 -8 0 -35 -5 -60 -13z"/>
<path d="M24 4418 c46 -571 244 -1234 530 -1783 105 -201 323 -555 342 -555 3
0 63 35 132 79 257 159 536 299 852 428 74 30 139 59 144 63 4 4 -6 61 -22
127 -114 440 -202 989 -232 1438 -6 88 -13 188 -16 223 l-6 62 -865 0 -866 0
7 -82z"/>
<path d="M2195 4403 c30 -455 75 -807 151 -1192 27 -137 94 -421 99 -421 1 0
31 9 66 19 347 106 832 207 1249 260 258 33 721 71 878 71 l42 0 0 680 0 680
-1246 0 -1246 0 7 -97z"/>
<path d="M5120 3820 l0 -680 28 0 c73 -1 406 -22 562 -35 512 -46 1018 -138
1493 -272 70 -20 129 -34 131 -32 14 18 114 496 151 724 46 279 95 753 95 911
l0 64 -1230 0 -1230 0 0 -680z"/>
<path d="M8027 4493 c-3 -5 -7 -62 -11 -128 -29 -517 -119 -1106 -241 -1578
l-33 -128 22 -9 c402 -155 729 -315 1033 -506 57 -36 107 -63 111 -60 13 8
120 170 205 311 94 156 266 502 336 676 169 422 295 939 327 1342 l7 87 -876
0 c-482 0 -878 -3 -880 -7z"/>
<path d="M4390 2689 c-617 -38 -1242 -142 -1767 -295 -65 -19 -67 1 22 -238
405 -1086 1043 -1847 1743 -2080 107 -35 234 -66 273 -66 19 0 19 22 19 1345
l0 1345 -82 -1 c-46 -1 -139 -5 -208 -10z"/>
<path d="M5120 1356 c0 -1275 1 -1346 18 -1346 31 0 206 48 295 80 708 258
1351 1067 1742 2191 l35 100 -28 10 c-54 21 -451 118 -622 153 -406 81 -837
132 -1287 152 l-153 7 0 -1347z"/>
<path d="M7615 2241 c-3 -5 -21 -55 -41 -112 -245 -703 -627 -1356 -1043
-1781 -58 -60 -99 -108 -93 -108 20 0 227 78 375 141 458 196 882 461 1273
796 121 103 448 428 519 516 32 40 36 51 25 58 -264 170 -602 338 -957 478
-29 11 -55 16 -58 12z"/>
<path d="M1990 2174 c-85 -35 -245 -108 -355 -163 -201 -100 -475 -257 -475
-273 0 -14 157 -186 296 -324 498 -494 1092 -875 1747 -1120 65 -24 121 -44
125 -44 3 0 -28 35 -69 77 -418 429 -785 1046 -1043 1754 -58 162 -57 159 -65
158 -3 0 -76 -29 -161 -65z"/>
</g>
</svg>
