<svg width="48" height="48" viewBox="0 0 48 48" fill="none" xmlns="http://www.w3.org/2000/svg">
<path fill-rule="evenodd" clip-rule="evenodd" d="M24 48C37.2549 48 48 37.2549 48 24C48 10.7451 37.2549 0 24 0C10.7451 0 0 10.7451 0 24C0 37.2549 10.7451 48 24 48ZM24.6631 24.7812L37.125 13H10.875L23.3369 24.7812C23.7031 25.127 24.2969 25.127 24.6631 24.7812ZM9.06396 15.0396L9.07666 14.9971C9.10107 14.9199 9.13086 14.8447 9.16553 14.7725L19.0576 24.1235L9.04004 33.5938C9.03125 33.5522 9.02344 33.5103 9.01758 33.4683L9.01221 33.4287C9.00439 33.3628 9 33.2954 9 33.2275V15.502C9 15.4668 9.00098 15.4321 9.00293 15.3975C9.00537 15.3608 9.00879 15.3247 9.01318 15.2886L9.02783 15.1943C9.03418 15.1592 9.0415 15.125 9.05029 15.0908L9.06396 15.0396ZM38.9233 14.9971C38.9331 15.0278 38.9419 15.0591 38.9497 15.0908C38.9585 15.125 38.9658 15.1592 38.9722 15.1943L38.9868 15.2886C38.9956 15.3584 39 15.4297 39 15.502V33.2275C39 33.3013 38.9951 33.374 38.9858 33.4453C38.9795 33.4956 38.9707 33.5449 38.96 33.5938L28.9424 24.1235L38.8345 14.7725C38.8691 14.8447 38.8989 14.9199 38.9233 14.9971ZM20.8623 25.8301L11.1626 35H36.8374L27.1377 25.8301L25.3257 27.543C24.5938 28.2349 23.4062 28.2349 22.6743 27.543L20.8623 25.8301Z" fill="black"/>
</svg>
