<?xml version="1.0" standalone="no"?>
<!DOCTYPE svg PUBLIC "-//W3C//DTD SVG 20010904//EN"
 "http://www.w3.org/TR/2001/REC-SVG-20010904/DTD/svg10.dtd">
<svg version="1.0" xmlns="http://www.w3.org/2000/svg"
 width="512.000000pt" height="512.000000pt" viewBox="0 0 512.000000 512.000000"
 preserveAspectRatio="xMidYMid meet">
<metadata>
Created by potrace 1.16, written by Peter Selinger 2001-2019
</metadata>
<g transform="translate(0.000000,512.000000) scale(0.100000,-0.100000)"
fill="#000000" stroke="none">
<path d="M2220 4894 c-398 -58 -816 -242 -1130 -497 -466 -378 -734 -834 -856
-1452 -26 -133 -27 -604 -1 -759 102 -601 430 -1144 913 -1506 341 -257 764
-422 1178 -461 176 -16 475 -7 629 20 640 112 1210 480 1564 1011 204 306 347
694 382 1039 22 215 11 535 -25 716 -128 644 -508 1198 -1059 1547 -282 178
-604 296 -933 342 -142 20 -525 20 -662 0z m1698 -1197 l143 -2 -258 -236
c-142 -130 -442 -408 -668 -619 -225 -210 -437 -400 -469 -421 -46 -30 -69
-39 -103 -39 -86 0 -85 -1 -792 659 -174 162 -405 376 -514 475 l-199 181 739
5 c680 5 1779 3 2121 -3z m-3001 -119 c182 -164 973 -902 973 -908 0 -6 -922
-864 -1051 -978 l-49 -44 1 429 c1 235 4 673 8 973 6 542 9 590 40 590 5 0 40
-28 78 -62z m3392 14 c5 -21 13 -446 17 -992 l7 -955 -44 40 c-167 150 -1049
979 -1049 986 0 14 1041 970 1050 964 5 -3 14 -23 19 -43z m-2113 -1191 c208
-188 223 -196 374 -196 154 0 147 -3 394 218 112 101 131 115 146 104 21 -15
1108 -1026 1133 -1055 44 -48 93 -47 -1683 -47 -1465 0 -1658 2 -1682 15 l-28
16 516 479 c283 264 548 510 587 547 40 37 73 67 75 68 1 0 77 -67 168 -149z"/>
</g>
</svg>
