<?xml version="1.0"?>
<svg width="36" height="36" xmlns="http://www.w3.org/2000/svg" xmlns:svg="http://www.w3.org/2000/svg" preserveAspectRatio="xMidYMid meet" version="1.1">
 <title>email-solid</title>
 <g class="layer">
  <title>Layer 1</title>
  <path class="clr-i-solid clr-i-solid-path-1" d="m34.62,4.4a2.29,2.22 0 0 0 -0.47,0l-32.13,0a2.29,2.22 0 0 0 -0.61,0.09l16.58,15.98l16.63,-16.07z" id="svg_1"/>
  <path class="clr-i-solid clr-i-solid-path-2" d="m35.85,6.7l-16.36,15.82a2.25,2.18 0 0 1 -3.17,0l-16.22,-15.7a2.25,2.18 0 0 0 -0.08,0.55l0,21.82a2.25,2.18 0 0 0 2.25,2.18l31.47,0a2.25,2.18 0 0 0 2.25,-2.18l0,-21.82a2.25,2.18 0 0 0 -0.13,-0.67zm-32.04,22.49l-1.56,0l0,-1.56l8.17,-7.87l1.58,1.54l-8.19,7.89zm29.91,0l-1.57,0l-8.19,-7.89l1.58,-1.54l8.17,7.87l0.01,1.56z" id="svg_2" transform="matrix(1 0 0 1 0 0)"/>
  <rect fill-opacity="0" height="36" id="svg_3" width="36" x="0" y="0"/>
 </g>
</svg>