<svg
   width="32"
   height="32"
   version="1.1"
   xml:space="preserve"
   xmlns="http://www.w3.org/2000/svg"
   xmlns:svg="http://www.w3.org/2000/svg">
 />
 <g
   id="g1"
   transform="matrix(0.56736876,0,0,0.56657224,-0.11914744,-0.06798867)">
   <circle
   cx="28.18"
   cy="28.59"
   id="svg_2"
   r="4.9200001" />
   <path
   d="M 34.48,16.19 H 21.87 c -1.83,0 -3.44,0.57 -4.47,1.61 -1.03,1.03 -1.6,2.64 -1.6,4.48 v 12.63 c 0,1.84 0.57,3.44 1.72,4.59 1.15,1.03 2.64,1.61 4.47,1.61 h 12.5 c 1.83,0 3.44,-0.57 4.47,-1.61 1.15,-1.03 1.72,-2.64 1.72,-4.48 V 22.39 c 0,-1.84 -0.57,-3.33 -1.6,-4.48 -1.15,-1.15 -2.64,-1.72 -4.59,-1.72 z m -6.31,20.2 c -4.36,0 -7.8,-3.56 -7.8,-7.81 0,-4.36 3.55,-7.81 7.8,-7.81 4.25,0 7.91,3.44 7.91,7.81 0,4.36 -3.55,7.81 -7.91,7.81 z m 8.14,-14.12 c -1.03,0 -1.83,-0.8 -1.83,-1.84 0,-1.04 0.8,-1.84 1.83,-1.84 1.03,0 1.83,0.8 1.83,1.84 0,1.04 -0.8,1.84 -1.83,1.84 z"
   id="svg_3" />
   <path
   d="M 28.41,0.12 C 12.82,0.12 0.21,12.75 0.21,28.36 0.21,43.97 12.82,56.6 28.41,56.6 44,56.6 56.61,43.97 56.61,28.36 56.72,12.75 44,0.12 28.41,0.12 Z m 15.02,34.9 c 0,2.64 -0.92,4.94 -2.52,6.54 -1.6,1.61 -3.9,2.41 -6.42,2.41 h -12.5 c -2.52,0 -4.81,-0.8 -6.42,-2.41 -1.72,-1.61 -2.52,-3.9 -2.52,-6.54 V 22.39 c 0,-5.28 3.55,-8.95 8.94,-8.95 H 34.6 c 2.64,0 4.81,0.92 6.42,2.53 1.6,1.61 2.41,3.79 2.41,6.43 v 12.63 z"
   id="svg_4" />
 </g>
</svg>
