<?xml version="1.0" encoding="UTF-8" standalone="no"?>
<svg
   width="48"
   height="48"
   viewBox="0 0 48 48"
   fill="none"
   version="1.1"
   id="svg3"
   xmlns="http://www.w3.org/2000/svg">
   <g id="background"
      style="fill: #ff0000">
      <circle
         id=" path4"
         cx=" 24.060991"
         cy=" 24"
         r=" 24" />
   </g>
   <g id="foreground" style="fill: #000000">
      <path
         d=" m 19.9709,36.4597 v -0.5764 c 0,-0.5284 0.2421,-0.8646 0.7263,-1.0087 0.121,-0.048 0.2542,-0.072 0.3994,-0.072 l 1.6705,-0.0721 V 13.80115 l -2.651,-0.21614 C 20.0435,12.528338 20.3582,12 21.0603,12 h 7.953 c 5.302,0 7.9531,1.99328 7.9531,5.97983 0,1.96926 -0.6295,3.55427 -1.8884,4.75507 -1.2348,1.1767 -2.8689,1.9332 -4.9026,2.2694 1.4768,3.098 3.0142,5.5116 4.612,7.2407 1.6221,1.7291 3.0263,2.5936 4.2126,2.5936 -0.0242,0.6484 -0.2179,1.1768 -0.581,1.585 C 38.08,36.8079 37.6442,37 37.1116,37 36.119,37 35.0053,36.3636 33.7706,35.0908 31.4222,32.6412 29.4854,29.3391 27.9602,25.1844 h -0.109 c -0.7989,0 -1.622,-0.036 -2.4694,-0.108 v 9.5821 l 2.76,0.2161 c 0.0968,1.0567 -0.23,1.5851 -0.9805,1.5851 z m 5.4109,-22.73059 v 9.69019 c 1.0168,0.048 1.731,0.0721 2.1426,0.0721 2.1789,0 3.8373,-0.4443 4.9752,-1.3329 1.1379,-0.88857 1.7068,-2.12536 1.7068,-3.71037 0,-2.11336 -0.6779,-3.49424 -2.0336,-4.14265 -1.1621,-0.55236 -2.6753,-0.7805 -4.5394,-0.68444 l -2.179,0.10807 z"
         id=" path1-1" />
      <path
         d=" m 28.0291,36.4597 v -0.5764 c 0,-0.5284 -0.2421,-0.8646 -0.7263,-1.0087 -0.121,-0.048 -0.2542,-0.072 -0.3994,-0.072 L 25.2329,34.7305 V 13.80115 l 2.651,-0.21614 C 27.9565,12.528338 27.6418,12 26.9397,12 h -7.95303 c -5.30202,0 -7.95302,1.99328 -7.95302,5.97983 0,1.96926 0.62946,3.55427 1.88839,4.75507 1.23471,1.1767 2.86889,1.9332 4.90254,2.2694 -1.47681,3.098 -3.01416,5.5116 -4.61202,7.2407 C 11.59048,33.9741 10.1863,34.8386 9,34.8386 9.02421,35.487 9.217892,36.0154 9.581043,36.4236 9.919985,36.8079 10.35577,37 10.88839,37 c 0.99261,0 2.10628,-0.6364 3.34099,-1.9092 2.34838,-2.4496 4.28519,-5.7517 5.81042,-9.9064 h 0.109 c 0.7989,0 1.622,-0.036 2.4694,-0.108 v 9.5821 l -2.76,0.2161 c -0.0968,1.0567 0.23,1.5851 0.9805,1.5851 z M 22.6182,13.72911 v 9.69019 c -1.0168,0.048 -1.731,0.0721 -2.1426,0.0721 -2.17892,0 -3.83731,-0.4443 -4.97519,-1.3329 -1.13787,-0.88857 -1.70681,-2.12536 -1.70681,-3.71037 0,-2.11336 0.67788,-3.49424 2.03365,-4.14265 1.16208,-0.55236 2.67521,-0.7805 4.53935,-0.68444 l 2.179,0.10807 z"
         id=" path2-7"
         />
   </g>
</svg>