<svg width="603" height="506" viewBox="0 0 603 506" fill="none" xmlns="http://www.w3.org/2000/svg">
<path d="M220.618 495V483.336C220.618 472.644 225.478 465.84 235.198 462.924C237.628 461.952 240.301 461.466 243.217 461.466L276.751 460.008V36.459L223.534 32.085C222.076 10.701 228.394 0.00898743 242.488 0.00898743H402.139C508.573 0.00898743 561.79 40.347 561.79 121.023C561.79 160.875 549.154 192.951 523.882 217.251C499.096 241.065 466.291 256.374 425.467 263.178C455.113 325.872 485.974 374.715 518.05 409.707C550.612 444.699 578.8 462.195 602.614 462.195C602.128 475.317 598.24 486.009 590.95 494.271C584.146 502.047 575.398 505.935 564.706 505.935C544.78 505.935 522.424 493.056 497.638 467.298C450.496 417.726 411.616 350.901 380.998 266.823H378.811C362.773 266.823 346.249 266.094 329.239 264.636V458.55L384.643 462.924C386.587 484.308 380.026 495 364.96 495H220.618ZM329.239 35.001V231.102C349.651 232.074 363.988 232.56 372.25 232.56C415.99 232.56 449.281 223.569 472.123 205.587C494.965 187.605 506.386 162.576 506.386 130.5C506.386 87.732 492.778 59.787 465.562 46.665C442.234 35.487 411.859 30.87 374.437 32.814L330.697 35.001H329.239Z" fill="black"/>
<path d="M382.382 495V483.336C382.382 472.644 377.522 465.84 367.802 462.924C365.372 461.952 362.699 461.466 359.783 461.466L326.249 460.008V36.459L379.466 32.085C380.924 10.701 374.606 0.00898743 360.512 0.00898743H200.861C94.4267 0.00898743 41.2097 40.347 41.2097 121.023C41.2097 160.875 53.8457 192.951 79.1178 217.251C103.904 241.065 136.709 256.374 177.533 263.178C147.887 325.872 117.026 374.715 84.9498 409.707C52.3878 444.699 24.1998 462.195 0.385742 462.195C0.871765 475.317 4.75977 486.009 12.0498 494.271C18.8538 502.047 27.6018 505.935 38.2938 505.935C58.2198 505.935 80.5758 493.056 105.362 467.298C152.504 417.726 191.384 350.901 222.002 266.823H224.189C240.227 266.823 256.751 266.094 273.761 264.636V458.55L218.357 462.924C216.413 484.308 222.974 495 238.04 495H382.382ZM273.761 35.001V231.102C253.349 232.074 239.012 232.56 230.75 232.56C187.01 232.56 153.719 223.569 130.877 205.587C108.035 187.605 96.6138 162.576 96.6138 130.5C96.6138 87.732 110.222 59.787 137.438 46.665C160.766 35.487 191.141 30.87 228.563 32.814L272.303 35.001H273.761Z" fill="black"/>
</svg>
