<?xml version="1.0" standalone="no"?>
<!DOCTYPE svg PUBLIC "-//W3C//DTD SVG 20010904//EN"
 "http://www.w3.org/TR/2001/REC-SVG-20010904/DTD/svg10.dtd">
<svg version="1.0" xmlns="http://www.w3.org/2000/svg"
 width="360.000000pt" height="360.000000pt" viewBox="0 0 360.000000 360.000000"
 preserveAspectRatio="xMidYMid meet">
<metadata>
Created by potrace 1.16, written by Peter Selinger 2001-2019
</metadata>
<g transform="translate(0.000000,360.000000) scale(0.100000,-0.100000)"
fill="#000000" stroke="none">
<path d="M1600 3590 c-501 -62 -940 -314 -1240 -711 -450 -598 -479 -1424 -73
-2054 177 -273 414 -485 708 -633 234 -118 458 -176 730 -188 666 -30 1289
311 1631 891 304 518 324 1172 53 1710 -180 356 -448 624 -804 803 -163 82
-318 134 -510 168 -99 18 -394 26 -495 14z m350 -1088 c54 -27 59 -53 59 -340
1 -272 8 -314 53 -331 35 -13 55 -3 104 53 75 85 149 204 219 351 36 77 74
156 83 175 28 57 42 60 292 59 273 -1 294 -5 298 -68 5 -67 -57 -178 -229
-411 -84 -113 -158 -220 -166 -239 -26 -61 -12 -85 132 -226 197 -192 265
-285 265 -360 0 -22 -8 -43 -20 -55 -19 -19 -34 -20 -227 -21 -115 -1 -224 -1
-243 0 -76 5 -120 36 -260 180 -86 89 -145 142 -163 146 -69 18 -112 -45 -130
-188 -14 -114 -27 -131 -113 -141 -71 -8 -241 8 -327 30 -74 19 -207 80 -274
125 -150 103 -323 314 -497 612 -62 105 -260 507 -269 545 -3 13 2 31 13 45
18 22 22 22 238 22 l221 0 30 -29 c17 -17 31 -34 31 -39 0 -5 31 -73 69 -151
114 -234 254 -426 311 -426 57 0 80 81 80 279 0 222 -25 292 -111 317 -40 11
-45 24 -22 53 35 42 83 50 308 51 180 0 215 -2 245 -18z"/>
</g>
</svg>
