<?xml version="1.0" standalone="no"?>
<!DOCTYPE svg PUBLIC "-//W3C//DTD SVG 20010904//EN"
 "http://www.w3.org/TR/2001/REC-SVG-20010904/DTD/svg10.dtd">
<svg version="1.0" xmlns="http://www.w3.org/2000/svg"
 width="1024.000000pt" height="1024.000000pt" viewBox="0 0 1024.000000 1024.000000"
 preserveAspectRatio="xMidYMid meet">
<metadata>
Created by potrace 1.16, written by Peter Selinger 2001-2019
</metadata>
<g transform="translate(0.000000,1024.000000) scale(0.100000,-0.100000)"
fill="#000000" stroke="none">
<path d="M4755 9839 c-570 -44 -1156 -204 -1690 -463 -509 -247 -848 -485
-1252 -879 -713 -697 -1159 -1528 -1347 -2512 -61 -321 -61 -320 -61 -870 0
-550 1 -556 61 -870 247 -1278 965 -2360 2039 -3070 532 -352 1087 -576 1758
-709 296 -59 323 -61 862 -60 466 0 509 2 639 22 956 152 1756 514 2456 1112
131 112 399 382 511 515 587 697 975 1569 1083 2435 58 462 43 1105 -35 1520
-67 355 -221 822 -387 1171 -313 661 -852 1304 -1479 1766 -571 421 -1237 706
-1958 838 -178 33 -305 43 -695 55 -346 11 -360 11 -505 -1z m791 -189 c41
-20 84 -71 84 -100 0 -7 -16 -30 -35 -51 -59 -65 -47 -79 65 -79 87 0 100 -5
100 -41 0 -30 -52 -99 -74 -99 -21 0 -52 -41 -91 -120 -50 -99 -74 -170 -85
-253 -6 -37 -17 -79 -26 -92 -9 -13 -24 -75 -35 -137 -24 -142 -50 -196 -106
-222 -23 -11 -46 -30 -52 -43 -17 -37 -13 -100 9 -143 40 -78 18 -132 -95
-238 -89 -83 -173 -129 -256 -138 -45 -5 -73 -16 -122 -48 -35 -22 -105 -63
-156 -91 -102 -54 -201 -139 -201 -171 0 -11 -17 -42 -37 -69 -21 -28 -60 -90
-87 -138 -28 -50 -55 -87 -64 -87 -9 0 -37 22 -63 50 -57 58 -72 104 -90 260
-15 134 -7 250 22 314 12 27 50 80 85 117 35 38 64 75 64 84 0 9 -10 29 -21
45 -29 39 -22 107 25 220 42 102 56 181 56 319 l0 103 -35 35 -36 36 -69 -7
c-68 -7 -70 -7 -71 16 -4 58 5 96 32 138 17 24 37 69 45 100 9 30 21 60 28 67
6 7 54 24 106 39 52 15 100 31 107 36 7 5 19 33 29 61 9 29 23 59 30 68 8 8
14 21 14 27 0 22 -36 12 -103 -28 -36 -22 -71 -40 -77 -40 -33 0 -105 -52
-185 -133 -50 -51 -112 -109 -138 -130 -25 -21 -63 -62 -82 -92 -45 -68 -65
-75 -114 -41 -20 14 -47 26 -59 26 -12 0 -29 11 -38 25 -9 14 -23 25 -30 25
-8 0 -14 10 -14 23 0 17 27 49 96 112 53 49 92 91 87 92 -6 2 -30 -1 -54 -6
-24 -6 -47 -7 -51 -3 -9 9 97 230 124 259 25 27 77 43 273 82 281 57 549 90
619 77 38 -7 46 -25 21 -46 -34 -28 -17 -40 55 -40 68 0 70 -1 70 -25 0 -41
33 -31 60 17 13 23 25 37 28 30 7 -22 58 -12 143 29 46 22 102 44 124 48 63
10 202 -6 251 -29z m-1836 -225 c0 -24 9 -45 31 -70 l31 -35 -30 -29 c-32 -32
-78 -49 -93 -34 -5 5 3 22 21 43 29 35 39 70 19 70 -5 0 -34 -22 -63 -50 -29
-27 -56 -50 -59 -50 -22 0 3 110 32 144 19 22 91 57 103 50 4 -3 8 -21 8 -39z
m2944 -176 c14 -11 26 -28 26 -37 0 -9 -25 -34 -55 -56 -29 -21 -57 -46 -60
-54 -5 -15 13 -56 61 -140 16 -27 17 -34 5 -41 -16 -10 -38 -4 -63 16 -26 23
-49 12 -67 -32 -9 -22 -21 -49 -27 -59 -11 -19 -13 -19 -39 -2 -21 14 -25 23
-21 42 5 18 0 27 -20 41 -34 22 -74 106 -74 155 0 35 3 38 38 47 20 5 46 11
57 13 10 2 32 22 48 46 15 23 34 42 42 42 7 0 23 9 36 20 31 25 80 25 113 -1z
m-3414 -6 c-1 -5 -7 -19 -15 -33 -25 -43 -20 -53 28 -47 23 2 56 10 72 17 35
15 112 7 141 -14 17 -13 16 -16 -16 -66 -26 -41 -34 -66 -39 -121 -4 -38 -11
-73 -17 -79 -18 -18 -89 99 -116 190 -16 56 -39 62 -61 16 -9 -19 -30 -42 -46
-51 -71 -36 -263 -59 -289 -33 -36 36 3 86 112 143 54 28 75 34 102 29 27 -5
43 0 81 25 47 31 63 37 63 24z m391 -216 c6 -55 14 -63 77 -72 71 -11 92 -22
92 -48 0 -31 -39 -88 -70 -104 -88 -45 -240 28 -240 114 0 40 47 123 84 149
35 24 50 14 57 -39z m-910 -47 c26 -14 24 -27 -11 -67 -32 -35 -35 -49 -21
-72 6 -9 5 -21 -2 -32 -8 -13 -7 -21 2 -33 20 -24 42 -20 110 24 111 72 171
96 171 69 0 -16 -16 -43 -112 -191 -105 -162 -114 -182 -123 -270 -6 -59 -10
-68 -27 -68 -11 0 -32 -7 -47 -16 -25 -15 -30 -15 -59 0 -39 20 -71 20 -100 0
-32 -22 -27 -56 13 -97 69 -71 132 -62 224 34 36 37 86 84 111 104 59 49 88
90 106 150 15 52 43 96 161 247 44 58 73 86 83 84 8 -3 55 -17 103 -31 l89
-27 -24 -25 c-28 -30 -70 -53 -98 -53 -27 0 -99 -73 -127 -130 -13 -25 -37
-80 -54 -122 -18 -45 -37 -78 -45 -78 -26 0 -28 -50 -4 -95 15 -27 21 -51 17
-66 -19 -78 -20 -79 -4 -79 37 0 197 163 197 201 0 13 -31 39 -45 39 -26 0
-27 21 -2 58 14 20 28 54 31 75 14 79 208 242 281 235 19 -2 30 -9 30 -18 0
-11 12 -15 50 -15 32 0 62 -8 85 -21 l35 -21 -3 -109 c-3 -106 -2 -110 22
-131 17 -15 23 -28 19 -43 -5 -17 4 -31 37 -61 33 -31 41 -44 36 -61 -3 -13
-6 -32 -6 -44 0 -12 -13 -41 -30 -65 -36 -53 -37 -68 -8 -104 15 -20 21 -39
19 -67 -1 -26 5 -51 19 -74 l22 -34 -20 -27 c-34 -47 -90 -96 -101 -88 -6 3
-20 24 -31 46 -22 41 -40 49 -60 24 -12 -15 -11 -34 6 -140 5 -36 2 -46 -22
-75 -35 -41 -110 -90 -140 -90 -14 0 -31 14 -49 43 -16 23 -53 68 -83 100 -47
49 -60 57 -92 57 -58 0 -78 36 -42 79 18 23 38 27 86 15 25 -6 35 0 97 65 107
112 123 139 117 209 -7 68 -40 151 -73 182 -24 22 -92 37 -110 23 -11 -8 -138
-329 -149 -374 -5 -24 -10 -26 -78 -32 -78 -6 -108 -14 -108 -28 0 -5 16 -32
35 -60 56 -82 47 -100 -54 -113 -30 -4 -67 -10 -83 -13 -28 -5 -29 -4 -22 23
4 16 22 63 41 106 35 80 40 108 22 108 -23 0 -149 -92 -230 -168 -46 -42 -111
-98 -144 -124 -129 -98 -194 -204 -203 -329 l-5 -70 132 -132 c72 -74 129
-135 127 -138 -2 -2 -9 -45 -15 -96 -12 -101 -4 -143 27 -143 28 0 49 29 87
121 32 78 42 91 134 179 55 52 102 104 105 115 3 11 -5 44 -20 74 l-25 55 44
40 c52 48 67 76 96 172 31 103 54 118 145 91 31 -10 46 -23 66 -57 18 -32 35
-46 58 -52 26 -7 32 -13 32 -36 0 -15 -12 -45 -25 -67 -33 -53 -35 -130 -4
-140 11 -4 31 -4 45 -1 35 9 102 73 126 119 31 62 39 31 32 -128 -7 -155 -1
-182 55 -253 37 -45 51 -109 52 -241 0 -53 4 -118 7 -145 6 -43 11 -50 42 -65
30 -14 35 -22 38 -55 6 -68 -33 -126 -84 -126 -13 0 -35 13 -51 28 -37 38 -65
52 -102 52 -17 0 -31 5 -31 11 0 6 36 56 80 112 79 101 96 137 63 137 -10 0
-66 -23 -127 -52 l-109 -52 -69 12 c-154 27 -202 4 -112 -53 37 -23 44 -33 39
-49 -16 -49 -11 -60 49 -100 74 -51 105 -90 90 -114 -6 -9 -44 -28 -85 -43
-41 -15 -95 -35 -122 -45 -39 -15 -51 -16 -67 -6 -11 7 -46 15 -78 18 -73 8
-90 -5 -145 -111 -40 -77 -44 -80 -82 -86 -62 -8 -83 -24 -139 -112 -71 -110
-93 -155 -110 -226 -8 -33 -16 -64 -20 -69 -3 -5 -48 -39 -101 -76 -111 -79
-180 -152 -189 -198 -7 -36 -1 -58 38 -161 24 -63 35 -155 20 -170 -22 -21
-89 70 -121 162 -18 54 -49 93 -114 141 -26 19 -45 25 -86 25 -47 0 -56 -4
-93 -40 l-41 -40 -87 3 c-48 2 -111 0 -140 -3 -99 -12 -143 -77 -178 -262 -26
-139 -5 -271 54 -336 28 -31 91 -58 146 -64 75 -8 108 12 146 88 32 62 53 78
128 94 l32 7 0 -50 c0 -38 -9 -67 -35 -118 -40 -76 -45 -118 -15 -134 10 -6
66 -15 123 -22 l104 -11 7 -104 c8 -124 22 -169 59 -197 26 -19 45 -21 186
-25 l157 -3 63 71 c35 39 74 74 87 77 12 3 56 -2 96 -12 54 -13 82 -27 108
-51 34 -31 40 -33 112 -33 99 0 177 15 203 40 30 28 34 26 41 -20 15 -93 177
-224 304 -245 64 -11 97 -30 161 -96 39 -39 62 -73 73 -107 19 -57 30 -68 107
-110 99 -54 222 -100 313 -116 111 -19 218 -71 292 -140 63 -61 67 -80 30
-174 -36 -90 -44 -142 -61 -360 -24 -307 -33 -335 -117 -351 -30 -5 -60 -20
-83 -39 -19 -18 -49 -38 -65 -47 -37 -19 -59 -82 -42 -121 7 -13 12 -39 12
-57 0 -58 -30 -171 -52 -201 -19 -27 -20 -34 -9 -74 11 -42 10 -47 -11 -69
-13 -14 -40 -34 -60 -46 -43 -24 -44 -26 -22 -69 20 -40 15 -129 -10 -157 -9
-10 -30 -21 -46 -24 -26 -6 -29 -11 -32 -49 -3 -36 -7 -43 -28 -48 -35 -8 -38
-43 -5 -67 68 -48 66 -42 50 -103 -8 -30 -15 -80 -15 -111 0 -51 3 -58 36 -88
41 -38 47 -52 63 -145 14 -81 23 -101 86 -184 26 -35 45 -66 41 -69 -9 -9 -98
13 -157 38 -41 18 -62 37 -111 101 -33 44 -66 82 -74 85 -8 3 -24 24 -36 47
-11 22 -41 70 -65 106 -38 55 -44 70 -39 99 4 28 0 38 -25 62 -17 16 -35 29
-39 29 -4 0 -20 18 -35 41 -21 30 -29 53 -30 92 -2 57 -18 93 -76 177 -35 50
-40 65 -48 145 -8 74 -19 112 -59 205 -56 133 -87 223 -136 408 -63 235 -130
332 -301 437 -142 87 -236 168 -302 260 -20 28 -72 86 -115 131 l-80 81 -2
119 c-2 81 -8 133 -19 163 -17 43 -17 44 9 90 82 141 87 153 87 206 0 62 -38
140 -90 186 -43 37 -60 37 -70 -2 l-8 -31 -115 58 c-105 52 -123 65 -210 155
-123 127 -214 172 -483 240 -158 40 -260 80 -333 130 -73 51 -81 61 -101 129
-22 76 -48 126 -185 351 -117 193 -149 239 -168 239 -22 0 -6 -59 71 -257 60
-153 65 -173 51 -173 -29 0 -172 251 -172 302 0 16 -9 49 -20 73 -56 122 -47
323 31 770 54 308 87 447 151 645 175 542 490 1091 865 1505 l108 120 3 -47
c3 -41 7 -49 28 -54 32 -8 73 3 81 22 8 21 -42 92 -69 97 -20 3 -5 21 113 139
75 75 145 141 156 147 18 9 23 4 49 -46 16 -31 40 -64 54 -74 67 -47 100 -28
100 57 0 48 4 59 29 82 47 44 65 90 65 160 l0 64 58 45 c67 51 226 153 240
153 5 0 18 -5 29 -10z m4994 -93 l26 -22 -23 -50 c-32 -71 -32 -217 1 -290 28
-63 72 -110 134 -141 64 -33 207 -66 270 -62 50 3 52 4 50 30 -1 16 -18 55
-39 88 -37 61 -58 150 -35 150 22 0 277 -264 307 -317 26 -48 54 -70 54 -43 0
25 23 6 37 -30 9 -22 21 -40 28 -40 23 0 185 -194 317 -380 478 -669 745
-1381 840 -2240 27 -246 14 -840 -24 -1049 -12 -66 -26 -62 -27 7 -2 69 -117
355 -160 397 -17 15 -46 29 -72 33 -40 7 -45 11 -57 46 -23 70 -90 131 -202
184 -50 24 -69 27 -221 32 -141 4 -170 8 -187 23 -14 13 -46 20 -119 26 -117
10 -172 31 -236 90 -51 47 -87 54 -87 18 0 -33 45 -92 114 -151 32 -27 62 -60
67 -72 11 -31 62 -32 137 -4 69 26 88 25 109 -7 17 -25 74 -83 114 -117 10 -9
19 -28 19 -43 0 -41 -41 -121 -89 -175 -83 -93 -386 -275 -549 -330 -139 -46
-153 -62 -105 -118 23 -28 31 -31 62 -26 20 4 71 11 115 16 52 6 92 18 121 34
23 14 45 22 49 19 11 -12 6 -72 -11 -115 -19 -50 -144 -245 -216 -338 -28 -36
-103 -123 -167 -195 -192 -215 -185 -204 -183 -307 1 -48 7 -115 13 -150 15
-92 13 -213 -5 -254 -8 -20 -71 -94 -140 -164 -135 -139 -135 -140 -114 -225
16 -63 7 -86 -62 -162 -34 -37 -63 -79 -66 -96 -9 -47 -120 -204 -198 -282
-57 -57 -83 -75 -141 -97 -86 -33 -192 -53 -227 -44 -41 10 -64 42 -71 98 -4
28 -25 98 -48 157 -46 121 -68 191 -98 311 -12 46 -37 132 -57 190 -50 149
-44 208 37 352 20 35 20 39 6 88 -10 35 -14 71 -10 109 8 68 1 84 -86 196
-110 141 -129 197 -104 295 18 71 14 155 -9 177 -8 8 -43 18 -78 23 -42 6 -92
23 -145 51 l-82 42 -58 -36 c-73 -45 -143 -57 -344 -57 l-144 0 -36 40 c-19
22 -60 53 -89 68 -45 22 -61 38 -89 86 -19 32 -58 82 -87 110 -84 81 -89 97
-87 266 1 80 -3 185 -9 234 l-12 88 62 123 c61 121 85 153 192 250 30 27 50
57 62 92 9 28 42 86 72 128 73 102 95 146 95 192 -1 45 -6 52 -84 117 l-59 50
6 70 c6 79 38 174 70 211 19 22 38 27 137 40 107 13 117 17 143 45 20 22 27
41 27 70 0 41 -5 48 -105 134 l-40 34 50 7 c61 9 105 31 170 85 58 49 79 83
71 116 -7 26 -5 28 84 98 59 46 142 137 165 183 8 15 15 53 16 83 0 30 4 64 9
75 7 19 8 18 13 -5 3 -14 8 -47 11 -75 5 -40 12 -56 41 -82 41 -39 53 -40 188
-13 180 36 237 80 237 179 0 42 18 61 58 61 33 0 42 21 33 78 -4 28 -5 56 -1
61 3 6 45 15 92 20 99 10 108 14 108 46 0 27 -22 36 -148 54 -190 29 -224 82
-162 252 34 91 37 155 8 173 -24 15 -58 -20 -103 -106 -39 -73 -95 -228 -95
-261 0 -11 17 -52 37 -92 l36 -72 -21 -34 c-22 -35 -55 -100 -87 -177 -15 -35
-25 -44 -57 -52 -21 -6 -42 -9 -47 -6 -5 3 -10 27 -13 53 -5 57 -63 183 -83
183 -8 0 -23 -10 -34 -22 -86 -91 -140 -73 -181 59 -36 118 -23 165 61 225
129 92 174 169 230 395 42 169 56 196 142 261 125 95 190 123 286 123 68 0 97
-15 103 -55 4 -30 59 -54 164 -72 135 -24 163 -44 237 -174 32 -57 61 -84 83
-76 13 5 15 14 10 49 -18 114 -19 162 -2 176 19 16 39 3 62 -41 21 -41 53 -36
121 20 96 78 90 74 112 63 15 -8 30 -8 58 3 21 8 54 18 73 23 39 10 48 32 31
75 -9 24 -14 26 -109 32 -72 5 -107 13 -128 27 -16 10 -40 19 -54 19 -59 0
-99 71 -86 154 4 21 1 95 -5 164 -13 134 -9 160 33 230 23 38 47 41 83 9z
m-2366 -1115 l143 -4 -4 -64 c-4 -71 -23 -104 -79 -142 -29 -20 -44 -23 -99
-20 -116 7 -141 33 -156 164 -7 59 7 90 35 78 9 -4 81 -9 160 -12z m520 -653
c22 -24 34 -70 20 -83 -17 -18 -9 -44 39 -117 101 -156 131 -225 117 -269 -4
-14 -15 -20 -35 -20 -46 0 -78 -17 -144 -75 -33 -30 -67 -55 -73 -55 -18 0
-17 108 1 183 7 31 25 74 40 95 36 53 33 75 -19 131 -53 56 -68 96 -54 145 12
44 46 86 69 86 11 0 28 -9 39 -21z m-139 -272 c0 -78 -25 -151 -61 -182 -60
-50 -91 -13 -87 105 l3 75 55 27 c83 40 90 38 90 -25z m-3377 -2102 c100 -49
155 -81 149 -87 -14 -14 -85 -22 -125 -14 -19 4 -54 24 -78 45 -59 52 -100 71
-162 77 -90 9 -118 15 -112 24 10 17 98 40 135 36 19 -2 106 -39 193 -81z
m360 -129 c31 -13 74 -52 66 -60 -2 -2 -54 -9 -115 -15 -168 -17 -225 13 -125
66 51 26 124 31 174 9z m5612 -1558 c-19 -137 -177 -568 -217 -589 -10 -6 -33
-7 -49 -4 -31 7 -99 69 -99 91 0 7 30 74 66 149 50 101 74 140 94 150 36 18
79 69 147 171 31 46 58 84 60 84 3 0 2 -24 -2 -52z"/>
<path d="M7340 7896 c-52 -14 -92 -34 -102 -50 -33 -48 31 -196 84 -196 22 0
23 25 3 73 -13 32 -13 37 1 51 12 13 19 13 35 3 18 -10 23 -8 44 16 30 34 44
95 24 108 -18 11 -33 10 -89 -5z"/>
<path d="M7530 6401 c-11 -22 -5 -44 23 -82 22 -30 14 -56 -25 -83 -33 -23
-101 -21 -123 4 -29 32 -63 25 -106 -20 -44 -46 -56 -81 -43 -119 13 -37 61
-39 146 -6 l68 27 88 -32 c61 -23 106 -33 150 -34 58 -1 66 1 88 27 28 32 31
78 8 102 -9 9 -38 27 -64 40 -71 36 -107 71 -126 123 -10 26 -22 53 -27 60
-14 18 -45 15 -57 -7z"/>
<path d="M6560 6225 c0 -4 7 -19 15 -34 22 -43 92 -98 153 -121 89 -33 108
-12 44 49 -58 55 -212 132 -212 106z"/>
<path d="M6374 6066 c-5 -13 -23 -16 -102 -16 -81 0 -100 -3 -126 -21 -49 -34
-109 -112 -138 -180 -36 -86 -65 -119 -135 -157 -33 -17 -67 -39 -74 -49 -13
-15 -11 -16 19 -10 19 4 81 27 138 52 132 58 182 67 376 69 196 1 190 5 196
-128 l4 -94 62 -11 c40 -7 75 -21 101 -41 106 -79 145 -102 177 -103 l33 -2 5
75 5 75 44 -3 c24 -1 110 -18 191 -37 215 -51 289 -46 402 26 71 46 88 80 88
178 0 44 -1 81 -3 81 -2 0 -43 -14 -93 -30 -109 -38 -173 -40 -240 -9 -77 37
-136 102 -164 184 -21 60 -29 70 -51 73 -27 3 -79 -31 -79 -51 0 -7 25 -34 55
-60 43 -38 55 -54 55 -78 0 -23 -6 -32 -27 -40 -45 -17 -115 -5 -133 23 -30
47 -124 138 -142 138 -10 0 -21 -8 -24 -17 -25 -88 -102 -183 -147 -183 -33 0
-67 28 -67 54 0 23 28 56 48 56 33 0 54 67 36 114 -3 9 -49 41 -101 72 -103
62 -177 81 -189 50z"/>
<path d="M7610 5271 c-27 -52 0 -150 70 -253 24 -34 61 -100 82 -147 93 -201
123 -255 173 -307 37 -40 58 -54 78 -54 26 0 27 2 27 50 0 61 -27 132 -86 222
-24 38 -63 106 -86 151 -22 45 -60 112 -84 148 -24 37 -46 79 -50 94 -7 30
-83 115 -102 115 -6 0 -16 -9 -22 -19z"/>
</g>
</svg>
