<?xml version="1.0"?>
<svg width="56.7" height="56.7" xmlns="http://www.w3.org/2000/svg" xmlns:svg="http://www.w3.org/2000/svg" enable-background="new 0 0 56.7 56.7" version="1.1" xml:space="preserve">
 <g class="layer">
  <title>Layer 1</title>
  <g id="svg_1">
   <circle cx="28.18" cy="28.59" id="svg_2" r="4.92"/>
   <path d="m34.48,16.19l-12.61,0c-1.83,0 -3.44,0.57 -4.47,1.61c-1.03,1.03 -1.6,2.64 -1.6,4.48l0,12.63c0,1.84 0.57,3.44 1.72,4.59c1.15,1.03 2.64,1.61 4.47,1.61l12.5,0c1.83,0 3.44,-0.57 4.47,-1.61c1.15,-1.03 1.72,-2.64 1.72,-4.48l0,-12.63c0,-1.84 -0.57,-3.33 -1.6,-4.48c-1.15,-1.15 -2.64,-1.72 -4.59,-1.72zm-6.31,20.2c-4.36,0 -7.8,-3.56 -7.8,-7.81c0,-4.36 3.55,-7.81 7.8,-7.81s7.91,3.44 7.91,7.81c0,4.36 -3.55,7.81 -7.91,7.81zm8.14,-14.12c-1.03,0 -1.83,-0.8 -1.83,-1.84s0.8,-1.84 1.83,-1.84s1.83,0.8 1.83,1.84s-0.8,1.84 -1.83,1.84z" id="svg_3"/>
   <path d="m28.41,0.12c-15.59,0 -28.2,12.63 -28.2,28.24c0,15.61 12.61,28.24 28.2,28.24c15.59,0 28.2,-12.63 28.2,-28.24c0.11,-15.61 -12.61,-28.24 -28.2,-28.24zm15.02,34.9c0,2.64 -0.92,4.94 -2.52,6.54c-1.6,1.61 -3.9,2.41 -6.42,2.41l-12.5,0c-2.52,0 -4.81,-0.8 -6.42,-2.41c-1.72,-1.61 -2.52,-3.9 -2.52,-6.54l0,-12.63c0,-5.28 3.55,-8.95 8.94,-8.95l12.61,0c2.64,0 4.81,0.92 6.42,2.53c1.6,1.61 2.41,3.79 2.41,6.43l0,12.63z" id="svg_4"/>
  </g>
 </g>
</svg>