<svg width="48" height="48" viewBox="0 0 48 48" fill="none" xmlns="http://www.w3.org/2000/svg">
  <path fill-rule="evenodd" clip-rule="evenodd"
    d="M24 48C37.2549 48 48 37.2549 48 24C48 10.7451 37.2549 0 24 0C10.7451 0 0 10.7451 0 24C0 37.2549 10.7451 48 24 48ZM28.0293 35.95V36.4596H27.1611H20.8389H19.9707V35.95C19.854 35.6906 19.8164 35.332 19.8584 34.8746L22.6182 34.6584V25.0764C22.1855 25.1132 21.7588 25.1406 21.3384 25.1587C20.936 25.1759 20.5396 25.1844 20.1489 25.1844H20.04C18.5146 29.3391 16.5776 32.6412 14.2295 35.0908C12.9946 36.3636 11.8809 37 10.8882 37C10.356 37 9.91992 36.8079 9.58105 36.4236C9.21777 36.0154 9.02441 35.4871 9 34.8386C10.1865 34.8386 11.5903 33.9741 13.2124 32.245C14.8105 30.5159 16.3477 28.1023 17.8247 25.0043C15.791 24.6681 14.1567 23.9116 12.9219 22.7349C11.6631 21.5341 11.0337 19.9491 11.0337 17.9799C11.0337 13.9933 13.6846 12 18.9868 12H21.0605H26.9395H29.0132C34.3154 12 36.9663 13.9933 36.9663 17.9799C36.9663 19.9491 36.3369 21.5341 35.0781 22.7349C33.8433 23.9116 32.209 24.6681 30.1753 25.0043C31.6523 28.1023 33.1895 30.5159 34.7876 32.245C36.4097 33.9741 37.8135 34.8386 39 34.8386C38.9756 35.4871 38.7822 36.0154 38.4189 36.4236C38.0801 36.8079 37.644 37 37.1118 37C36.1191 37 35.0054 36.3636 33.7705 35.0908C31.4224 32.6412 29.4854 29.3391 27.96 25.1844H27.8511C27.4331 25.1844 27.0083 25.1746 26.5771 25.1549C26.1841 25.137 25.7856 25.1107 25.3818 25.0764V34.6584L28.1416 34.8746C28.1836 35.332 28.146 35.6906 28.0293 35.95ZM25.3818 13.7891V23.4193C25.9741 23.4473 26.4644 23.4672 26.8516 23.4789C27.1284 23.4872 27.3525 23.4913 27.5244 23.4913C29.7031 23.4913 31.3618 23.0471 32.4995 22.1584C33.6377 21.2699 34.2065 20.0331 34.2065 18.4481C34.2065 16.3347 33.5283 14.9539 32.1729 14.3054C31.0107 13.7532 29.4976 13.525 27.6333 13.6211L27.1421 13.6455L25.3818 13.7891ZM20.8579 13.6455L20.3667 13.6211C18.5024 13.525 16.9893 13.7532 15.8271 14.3054C14.4717 14.9539 13.7935 16.3347 13.7935 18.4481C13.7935 20.0331 14.3623 21.2699 15.5005 22.1584C16.6382 23.0471 18.2969 23.4913 20.4756 23.4913C20.8872 23.4913 21.6016 23.4673 22.6182 23.4193V13.7891L20.8579 13.6455Z"
    fill="#3A3A3A" />
</svg>